<svg xmlns="http://www.w3.org/2000/svg" viewBox="0 0 800 500" width="800" height="500">
  <defs>
    <linearGradient id="bg" x1="0%" y1="0%" x2="100%" y2="100%">
      <stop offset="0%" stop-color="#0a0d14"/>
      <stop offset="100%" stop-color="#111825"/>
    </linearGradient>
    <pattern id="dots" x="0" y="0" width="24" height="24" patternUnits="userSpaceOnUse">
      <circle cx="12" cy="12" r="0.8" fill="rgba(255,255,255,0.04)"/>
    </pattern>
  </defs>
  <rect width="800" height="500" fill="url(#bg)"/>
  <rect width="800" height="500" fill="url(#dots)"/>
  <!-- Terminal window -->
  <rect x="80" y="40" width="640" height="420" rx="12" fill="#111621" stroke="rgba(255,255,255,0.06)" stroke-width="1"/>
  <rect x="80" y="40" width="640" height="36" rx="12" fill="#161c2a"/>
  <rect x="80" y="64" width="640" height="12" fill="#161c2a"/>
  <circle cx="104" cy="58" r="5" fill="#ff5f57" opacity="0.7"/>
  <circle cx="124" cy="58" r="5" fill="#ffbd2e" opacity="0.7"/>
  <circle cx="144" cy="58" r="5" fill="#28ca42" opacity="0.7"/>
  <text x="400" y="62" text-anchor="middle" fill="rgba(255,255,255,0.35)" font-family="monospace" font-size="11">Django REST Framework — API Browser</text>
  <!-- DRF-style header -->
  <rect x="80" y="76" width="640" height="40" fill="#0e4429" opacity="0.4"/>
  <text x="110" y="102" fill="rgba(255,255,255,0.8)" font-family="sans-serif" font-size="14" font-weight="bold">Django REST Framework</text>
  <text x="540" y="102" fill="rgba(255,255,255,0.3)" font-family="monospace" font-size="10">API v1.0</text>
  <!-- Endpoint list -->
  <text x="110" y="140" fill="rgba(0,255,136,0.6)" font-family="monospace" font-size="11">API ENDPOINTS</text>
  <!-- GET endpoints -->
  <rect x="110" y="156" width="40" height="18" rx="4" fill="rgba(0,200,100,0.2)"/>
  <text x="120" y="169" fill="rgba(0,200,100,0.8)" font-family="monospace" font-size="9" font-weight="bold">GET</text>
  <text x="160" y="169" fill="rgba(255,255,255,0.5)" font-family="monospace" font-size="11">/api/v1/users/</text>
  <text x="540" y="169" fill="rgba(255,255,255,0.2)" font-family="monospace" font-size="10">200 OK</text>
  <rect x="110" y="182" width="40" height="18" rx="4" fill="rgba(0,200,100,0.2)"/>
  <text x="120" y="195" fill="rgba(0,200,100,0.8)" font-family="monospace" font-size="9" font-weight="bold">GET</text>
  <text x="160" y="195" fill="rgba(255,255,255,0.5)" font-family="monospace" font-size="11">/api/v1/posts/</text>
  <text x="540" y="195" fill="rgba(255,255,255,0.2)" font-family="monospace" font-size="10">200 OK</text>
  <rect x="110" y="208" width="44" height="18" rx="4" fill="rgba(0,140,255,0.2)"/>
  <text x="117" y="221" fill="rgba(0,140,255,0.8)" font-family="monospace" font-size="9" font-weight="bold">POST</text>
  <text x="164" y="221" fill="rgba(255,255,255,0.5)" font-family="monospace" font-size="11">/api/v1/posts/create/</text>
  <text x="540" y="221" fill="rgba(255,255,255,0.2)" font-family="monospace" font-size="10">201 Created</text>
  <rect x="110" y="234" width="40" height="18" rx="4" fill="rgba(255,180,0,0.2)"/>
  <text x="118" y="247" fill="rgba(255,180,0,0.8)" font-family="monospace" font-size="9" font-weight="bold">PUT</text>
  <text x="160" y="247" fill="rgba(255,255,255,0.5)" font-family="monospace" font-size="11">/api/v1/posts/{id}/</text>
  <text x="540" y="247" fill="rgba(255,255,255,0.2)" font-family="monospace" font-size="10">200 OK</text>
  <rect x="110" y="260" width="54" height="18" rx="4" fill="rgba(255,80,80,0.2)"/>
  <text x="116" y="273" fill="rgba(255,80,80,0.8)" font-family="monospace" font-size="9" font-weight="bold">DELETE</text>
  <text x="174" y="273" fill="rgba(255,255,255,0.5)" font-family="monospace" font-size="11">/api/v1/posts/{id}/</text>
  <text x="540" y="273" fill="rgba(255,255,255,0.2)" font-family="monospace" font-size="10">204</text>
  <!-- Auth endpoints -->
  <rect x="110" y="286" width="44" height="18" rx="4" fill="rgba(0,140,255,0.2)"/>
  <text x="117" y="299" fill="rgba(0,140,255,0.8)" font-family="monospace" font-size="9" font-weight="bold">POST</text>
  <text x="164" y="299" fill="rgba(255,255,255,0.5)" font-family="monospace" font-size="11">/api/v1/auth/login/</text>
  <text x="540" y="299" fill="rgba(255,255,255,0.2)" font-family="monospace" font-size="10">JWT Token</text>
  <rect x="110" y="312" width="44" height="18" rx="4" fill="rgba(0,140,255,0.2)"/>
  <text x="117" y="325" fill="rgba(0,140,255,0.8)" font-family="monospace" font-size="9" font-weight="bold">POST</text>
  <text x="164" y="325" fill="rgba(255,255,255,0.5)" font-family="monospace" font-size="11">/api/v1/auth/register/</text>
  <text x="540" y="325" fill="rgba(255,255,255,0.2)" font-family="monospace" font-size="10">201 Created</text>
  <!-- Divider -->
  <line x1="110" y1="345" x2="690" y2="345" stroke="rgba(255,255,255,0.04)" stroke-width="1"/>
  <!-- Tech badges -->
  <text x="110" y="370" fill="rgba(255,255,255,0.3)" font-family="monospace" font-size="9">STACK</text>
  <rect x="110" y="380" width="56" height="22" rx="6" fill="rgba(0,100,50,0.25)" stroke="rgba(0,200,100,0.2)" stroke-width="1"/>
  <text x="120" y="395" fill="rgba(0,200,100,0.8)" font-family="monospace" font-size="9">Django</text>
  <rect x="174" y="380" width="36" height="22" rx="6" fill="rgba(180,50,50,0.2)" stroke="rgba(255,100,100,0.2)" stroke-width="1"/>
  <text x="182" y="395" fill="rgba(255,120,120,0.8)" font-family="monospace" font-size="9">DRF</text>
  <rect x="218" y="380" width="80" height="22" rx="6" fill="rgba(50,80,180,0.2)" stroke="rgba(100,140,255,0.2)" stroke-width="1"/>
  <text x="228" y="395" fill="rgba(100,140,255,0.8)" font-family="monospace" font-size="9">PostgreSQL</text>
  <rect x="306" y="380" width="38" height="22" rx="6" fill="rgba(255,180,0,0.15)" stroke="rgba(255,180,0,0.2)" stroke-width="1"/>
  <text x="314" y="395" fill="rgba(255,180,0,0.7)" font-family="monospace" font-size="9">JWT</text>
  <!-- Response preview -->
  <rect x="110" y="414" width="580" height="36" rx="6" fill="#0a0d14" stroke="rgba(255,255,255,0.03)" stroke-width="1"/>
  <text x="126" y="436" fill="rgba(0,255,136,0.5)" font-family="monospace" font-size="10">{ "status": "ok", "endpoints": 8, "auth": "JWT", "db": "PostgreSQL" }</text>
</svg>
