<svg xmlns="http://www.w3.org/2000/svg" viewBox="0 0 800 500" width="800" height="500">
  <defs>
    <linearGradient id="bg" x1="0%" y1="0%" x2="100%" y2="100%">
      <stop offset="0%" stop-color="#0a0d14"/>
      <stop offset="100%" stop-color="#111825"/>
    </linearGradient>
    <pattern id="dots" x="0" y="0" width="24" height="24" patternUnits="userSpaceOnUse">
      <circle cx="12" cy="12" r="0.8" fill="rgba(255,255,255,0.04)"/>
    </pattern>
  </defs>
  <rect width="800" height="500" fill="url(#bg)"/>
  <rect width="800" height="500" fill="url(#dots)"/>
  <!-- Dashboard frame -->
  <rect x="100" y="60" width="600" height="380" rx="12" fill="#111621" stroke="rgba(255,255,255,0.06)" stroke-width="1"/>
  <!-- Header -->
  <rect x="100" y="60" width="600" height="36" rx="12" fill="#161c2a"/>
  <rect x="100" y="84" width="600" height="12" fill="#161c2a"/>
  <circle cx="124" cy="78" r="5" fill="#ff5f57" opacity="0.7"/>
  <circle cx="144" cy="78" r="5" fill="#ffbd2e" opacity="0.7"/>
  <circle cx="164" cy="78" r="5" fill="#28ca42" opacity="0.7"/>
  <!-- Chart area -->
  <rect x="128" y="114" width="340" height="200" rx="8" fill="#0e1219" stroke="rgba(255,255,255,0.04)" stroke-width="1"/>
  <!-- Grid lines -->
  <line x1="128" y1="164" x2="468" y2="164" stroke="rgba(255,255,255,0.03)" stroke-width="1"/>
  <line x1="128" y1="214" x2="468" y2="214" stroke="rgba(255,255,255,0.03)" stroke-width="1"/>
  <line x1="128" y1="264" x2="468" y2="264" stroke="rgba(255,255,255,0.03)" stroke-width="1"/>
  <!-- Chart line -->
  <polyline points="148,290 190,270 230,250 270,220 310,180 350,200 390,160 430,140 448,150" fill="none" stroke="#00ff88" stroke-width="2" opacity="0.8"/>
  <!-- Chart area fill -->
  <polygon points="148,290 190,270 230,250 270,220 310,180 350,200 390,160 430,140 448,150 448,304 148,304" fill="rgba(0,255,136,0.06)"/>
  <!-- Data points -->
  <circle cx="270" cy="220" r="3" fill="#00ff88" opacity="0.9"/>
  <circle cx="390" cy="160" r="3" fill="#00ff88" opacity="0.9"/>
  <circle cx="448" cy="150" r="3" fill="#00ff88" opacity="0.9"/>
  <!-- Sidebar metrics -->
  <rect x="488" y="114" width="184" height="60" rx="8" fill="#0e1219" stroke="rgba(255,255,255,0.04)" stroke-width="1"/>
  <text x="504" y="136" fill="rgba(255,255,255,0.3)" font-family="sans-serif" font-size="10">ACCURACY</text>
  <text x="504" y="162" fill="#00ff88" font-family="sans-serif" font-size="22" font-weight="bold">94.7%</text>
  <rect x="488" y="184" width="184" height="60" rx="8" fill="#0e1219" stroke="rgba(255,255,255,0.04)" stroke-width="1"/>
  <text x="504" y="206" fill="rgba(255,255,255,0.3)" font-family="sans-serif" font-size="10">F1 SCORE</text>
  <text x="504" y="232" fill="rgba(255,255,255,0.6)" font-family="sans-serif" font-size="22" font-weight="bold">0.926</text>
  <rect x="488" y="254" width="184" height="60" rx="8" fill="#0e1219" stroke="rgba(255,255,255,0.04)" stroke-width="1"/>
  <text x="504" y="276" fill="rgba(255,255,255,0.3)" font-family="sans-serif" font-size="10">PREDICTIONS</text>
  <text x="504" y="302" fill="rgba(255,255,255,0.6)" font-family="sans-serif" font-size="22" font-weight="bold">12.4K</text>
  <!-- Bottom bar -->
  <rect x="128" y="330" width="100" height="8" rx="4" fill="rgba(255,255,255,0.06)"/>
  <rect x="128" y="346" width="160" height="6" rx="3" fill="rgba(255,255,255,0.03)"/>
  <!-- Confusion matrix hint -->
  <rect x="128" y="370" width="80" height="56" rx="6" fill="#0e1219" stroke="rgba(255,255,255,0.04)" stroke-width="1"/>
  <rect x="136" y="378" width="30" height="18" rx="3" fill="rgba(0,255,136,0.15)"/>
  <rect x="170" y="378" width="30" height="18" rx="3" fill="rgba(255,100,100,0.1)"/>
  <rect x="136" y="400" width="30" height="18" rx="3" fill="rgba(255,100,100,0.1)"/>
  <rect x="170" y="400" width="30" height="18" rx="3" fill="rgba(0,255,136,0.15)"/>
</svg>
