<svg xmlns="http://www.w3.org/2000/svg" viewBox="0 0 800 500" width="800" height="500">
  <defs>
    <linearGradient id="bg" x1="0%" y1="0%" x2="100%" y2="100%">
      <stop offset="0%" stop-color="#0a0d14"/>
      <stop offset="100%" stop-color="#111825"/>
    </linearGradient>
    <pattern id="dots" x="0" y="0" width="24" height="24" patternUnits="userSpaceOnUse">
      <circle cx="12" cy="12" r="0.8" fill="rgba(255,255,255,0.04)"/>
    </pattern>
  </defs>
  <rect width="800" height="500" fill="url(#bg)"/>
  <rect width="800" height="500" fill="url(#dots)"/>
  <!-- App frame -->
  <rect x="100" y="60" width="600" height="380" rx="12" fill="#111621" stroke="rgba(255,255,255,0.06)" stroke-width="1"/>
  <!-- Title bar -->
  <rect x="100" y="60" width="600" height="36" rx="12" fill="#161c2a"/>
  <rect x="100" y="84" width="600" height="12" fill="#161c2a"/>
  <circle cx="124" cy="78" r="5" fill="#ff5f57" opacity="0.7"/>
  <circle cx="144" cy="78" r="5" fill="#ffbd2e" opacity="0.7"/>
  <circle cx="164" cy="78" r="5" fill="#28ca42" opacity="0.7"/>
  <!-- Sidebar -->
  <rect x="100" y="96" width="140" height="344" fill="#0e1219"/>
  <line x1="240" y1="96" x2="240" y2="440" stroke="rgba(255,255,255,0.04)" stroke-width="1"/>
  <!-- Sidebar items -->
  <rect x="116" y="114" width="108" height="28" rx="6" fill="rgba(0,255,136,0.1)" stroke="rgba(0,255,136,0.2)" stroke-width="1"/>
  <rect x="128" y="124" width="60" height="8" rx="4" fill="rgba(0,255,136,0.5)"/>
  <rect x="128" y="160" width="50" height="8" rx="4" fill="rgba(255,255,255,0.1)"/>
  <rect x="128" y="184" width="70" height="8" rx="4" fill="rgba(255,255,255,0.1)"/>
  <rect x="128" y="208" width="55" height="8" rx="4" fill="rgba(255,255,255,0.1)"/>
  <rect x="128" y="232" width="65" height="8" rx="4" fill="rgba(255,255,255,0.1)"/>
  <!-- Main content area -->
  <!-- Search bar -->
  <rect x="260" y="114" width="420" height="36" rx="8" fill="#0e1219" stroke="rgba(255,255,255,0.04)" stroke-width="1"/>
  <rect x="276" y="128" width="100" height="8" rx="4" fill="rgba(255,255,255,0.06)"/>
  <!-- Tool cards grid -->
  <rect x="260" y="168" width="196" height="120" rx="8" fill="#0e1219" stroke="rgba(255,255,255,0.04)" stroke-width="1"/>
  <rect x="276" y="184" width="32" height="32" rx="8" fill="rgba(0,255,136,0.1)"/>
  <rect x="276" y="230" width="100" height="8" rx="4" fill="rgba(255,255,255,0.08)"/>
  <rect x="276" y="246" width="150" height="6" rx="3" fill="rgba(255,255,255,0.04)"/>
  <rect x="276" y="260" width="120" height="6" rx="3" fill="rgba(255,255,255,0.03)"/>
  <rect x="476" y="168" width="196" height="120" rx="8" fill="#0e1219" stroke="rgba(255,255,255,0.04)" stroke-width="1"/>
  <rect x="492" y="184" width="32" height="32" rx="8" fill="rgba(136,100,255,0.1)"/>
  <rect x="492" y="230" width="80" height="8" rx="4" fill="rgba(255,255,255,0.08)"/>
  <rect x="492" y="246" width="140" height="6" rx="3" fill="rgba(255,255,255,0.04)"/>
  <rect x="492" y="260" width="110" height="6" rx="3" fill="rgba(255,255,255,0.03)"/>
  <rect x="260" y="304" width="196" height="120" rx="8" fill="#0e1219" stroke="rgba(255,255,255,0.04)" stroke-width="1"/>
  <rect x="276" y="320" width="32" height="32" rx="8" fill="rgba(255,180,46,0.1)"/>
  <rect x="276" y="366" width="90" height="8" rx="4" fill="rgba(255,255,255,0.08)"/>
  <rect x="276" y="382" width="160" height="6" rx="3" fill="rgba(255,255,255,0.04)"/>
  <rect x="276" y="396" width="130" height="6" rx="3" fill="rgba(255,255,255,0.03)"/>
  <rect x="476" y="304" width="196" height="120" rx="8" fill="#0e1219" stroke="rgba(255,255,255,0.04)" stroke-width="1"/>
  <rect x="492" y="320" width="32" height="32" rx="8" fill="rgba(255,95,87,0.1)"/>
  <rect x="492" y="366" width="110" height="8" rx="4" fill="rgba(255,255,255,0.08)"/>
  <rect x="492" y="382" width="150" height="6" rx="3" fill="rgba(255,255,255,0.04)"/>
  <rect x="492" y="396" width="120" height="6" rx="3" fill="rgba(255,255,255,0.03)"/>
</svg>
